<svg xmlns="http://www.w3.org/2000/svg" width="329" height="42.867" viewBox="0 0 329 42.867"><g transform="translate(0 3.145)"><path d="M36.3,42.361l12.777-.538V39.94c0-4.976-2.555-7.868-8.743-7.868S31.66,34.964,31.526,38.6H25.271c.269-6.658,4.977-11.769,15.064-11.769s14.593,5.11,14.593,13.45V62.8H49.077V57.493a.357.357,0,0,0-.4-.4A.642.642,0,0,0,48,57.56c-1.581,3.7-5.044,6.254-11.029,6.254-8.069,0-13.449-4.573-13.449-11.3C23.523,46.464,27.558,42.731,36.3,42.361Zm1.681,16.207c6.724,0,11.1-3.833,11.1-11.23v-.4L36.3,47.472c-4.708.2-6.725,2.019-6.725,5.044C29.575,56.214,32.6,58.569,37.982,58.569Z" transform="translate(-23.523 -26.827)"></path></g><g transform="translate(39.832)"><path d="M168.83,36.7c0-7.444,4.173-11.535,9.9-13.58a44.582,44.582,0,0,0-1.718,13.58c0,6.053.654,10.635,1.881,13.907C173,48.567,168.83,44.312,168.83,36.7Zm20.125-15.053a31.882,31.882,0,0,0-10.226,1.473c2.046-5.809,5.644-7.772,10.062-7.772,4.09,0,7.526,2.046,9.408,7.853A27.766,27.766,0,0,0,188.955,21.652ZM178.892,50.612a30.536,30.536,0,0,0,10.062,1.554,32.573,32.573,0,0,0,9.408-1.145c-1.881,5.4-5.481,7.2-9.49,7.2C184.21,58.22,180.774,56.011,178.892,50.612ZM198.2,23.206c4.663,1.637,8.59,4.582,9.571,9h-8.017A35.127,35.127,0,0,0,198.2,23.206Zm1.554,19.307h8.18c-1.391,4.336-4.663,7.117-9.571,8.508A26.322,26.322,0,0,0,199.753,42.514Z" transform="translate(-168.83 -15.353)"></path></g><g transform="translate(87.605 3.952)"><path d="M343.106,64.941V29.972h6.053v5.581c0,.336.135.471.471.471.4,0,.538-.2.673-.672,1.211-3.833,4.237-5.582,8.675-5.582h3.967v5.918H358.1c-5.851,0-8.944,2.689-8.944,9.415V64.941Z" transform="translate(-343.106 -29.77)"></path></g><g transform="translate(110.336 3.145)"><path d="M462.48,45.32c0,12.1-8.07,18.494-18.224,18.494s-18.224-6.389-18.224-18.494,8.07-18.493,18.224-18.493S462.48,33.216,462.48,45.32Zm-30.329,0c0,8.406,5.043,13.114,12.1,13.114s12.1-4.708,12.1-13.114-5.044-13.113-12.1-13.113S432.151,36.915,432.151,45.32Z" transform="translate(-426.031 -26.827)"></path></g><g transform="translate(151.964 3.145)"><path d="M608.289,38.932H602.1c-.471-4.775-3.7-6.927-9.347-6.927s-8,2.152-8,5.044,2.085,3.9,6.859,4.808l4.977.942c6.388,1.209,11.97,3.295,11.97,10.221s-5.313,10.794-14.324,10.794-15.77-3.9-16.341-12.24h6.153c.471,4.64,4.338,7.061,10.188,7.061s8.272-2.253,8.272-5.279-2.421-4.069-7.263-4.976l-4.977-.941c-6.825-1.279-11.566-3.6-11.566-10.323s5.783-10.289,14.055-10.289S607.616,30.391,608.289,38.932Z" transform="translate(-577.892 -26.827)"></path></g><g transform="translate(187.674 3.145)"><path d="M738.559,38.932h-6.187c-.471-4.775-3.7-6.927-9.347-6.927s-8,2.152-8,5.044,2.084,3.9,6.859,4.808l4.977.942c6.388,1.209,11.97,3.295,11.97,10.221S733.515,63.814,724.5,63.814s-15.77-3.9-16.342-12.24h6.153c.471,4.64,4.338,7.061,10.189,7.061s8.272-2.253,8.272-5.279-2.421-4.069-7.263-4.976l-4.976-.941c-6.825-1.279-11.567-3.6-11.567-10.323s5.783-10.289,14.055-10.289S737.886,30.391,738.559,38.932Z" transform="translate(-708.162 -26.827)"></path></g><g transform="translate(234.022 4.226)"><g transform="translate(0.542 0.058)"><path d="M884.71,38.445v.714h-5.5V30.978h5.392v.715h-4.586v2.95h4v.68h-4v3.123Z" transform="translate(-879.214 -30.978)"></path></g><g transform="translate(8.02 0.058)"><path d="M909.939,39.216a3.53,3.53,0,0,1-1.636-.345,2.8,2.8,0,0,1-1.06-.928,4.037,4.037,0,0,1-.57-1.319,6.434,6.434,0,0,1-.178-1.521V30.978h.795V35.1a5.856,5.856,0,0,0,.133,1.245,3.44,3.44,0,0,0,.432,1.095,2.174,2.174,0,0,0,.806.766,3,3,0,0,0,2.564-.012,2.21,2.21,0,0,0,.806-.778,3.438,3.438,0,0,0,.421-1.089,5.979,5.979,0,0,0,.127-1.227V30.978h.807V35.1a6.539,6.539,0,0,1-.184,1.567,3.735,3.735,0,0,1-.593,1.314,2.939,2.939,0,0,1-1.066.9A3.5,3.5,0,0,1,909.939,39.216Z" transform="translate(-906.494 -30.978)"></path></g><g transform="translate(17.411 0.058)"><path d="M940.752,39.159V30.978h3.456a2.136,2.136,0,0,1,.968.219,2.5,2.5,0,0,1,.766.593,2.821,2.821,0,0,1,.507.83,2.522,2.522,0,0,1,.179.928,2.754,2.754,0,0,1-.225,1.106,2.426,2.426,0,0,1-.634.876,2.075,2.075,0,0,1-.962.473l2,3.157h-.91l-1.924-3.019h-2.42v3.019Zm.806-3.733h2.673a1.372,1.372,0,0,0,.841-.265,1.747,1.747,0,0,0,.553-.7,2.194,2.194,0,0,0,.2-.916,1.937,1.937,0,0,0-.824-1.6,1.434,1.434,0,0,0-.836-.259h-2.6Z" transform="translate(-940.752 -30.978)"></path></g><g transform="translate(24.969)"><path d="M972.161,39.064a3.5,3.5,0,0,1-1.567-.345,3.746,3.746,0,0,1-1.21-.939,4.408,4.408,0,0,1-.784-1.337,4.344,4.344,0,0,1-.277-1.527,4.3,4.3,0,0,1,1.1-2.886,3.954,3.954,0,0,1,1.227-.922,3.448,3.448,0,0,1,1.521-.34,3.409,3.409,0,0,1,1.567.357,3.8,3.8,0,0,1,1.2.956,4.557,4.557,0,0,1,.778,1.337,4.312,4.312,0,0,1-.012,3.071,4.323,4.323,0,0,1-.806,1.325,3.813,3.813,0,0,1-1.221.916A3.5,3.5,0,0,1,972.161,39.064Zm-3.03-4.148a3.811,3.811,0,0,0,.219,1.285,3.489,3.489,0,0,0,.622,1.094,3.034,3.034,0,0,0,.962.761,2.831,2.831,0,0,0,2.488-.012,3.045,3.045,0,0,0,.957-.784,3.533,3.533,0,0,0,.6-1.1,3.842,3.842,0,0,0,.208-1.245,3.767,3.767,0,0,0-.219-1.279,3.523,3.523,0,0,0-.628-1.094,3.01,3.01,0,0,0-.962-.761,2.848,2.848,0,0,0-2.471.012,2.976,2.976,0,0,0-.956.778,3.631,3.631,0,0,0-.611,1.1A3.75,3.75,0,0,0,969.131,34.916Z" transform="translate(-968.324 -30.768)"></path></g><g transform="translate(34.74 0.058)"><path d="M1003.97,39.159V30.978h3.388a2.171,2.171,0,0,1,.974.219,2.41,2.41,0,0,1,.766.593,2.982,2.982,0,0,1,.507.83,2.455,2.455,0,0,1,.184.928,2.8,2.8,0,0,1-.294,1.262,2.5,2.5,0,0,1-.824.962,2.123,2.123,0,0,1-1.244.369h-2.65v3.019Zm.806-3.733h2.616a1.373,1.373,0,0,0,.841-.265,1.756,1.756,0,0,0,.553-.691,2.183,2.183,0,0,0,.2-.922,1.933,1.933,0,0,0-.231-.933,1.841,1.841,0,0,0-.6-.674,1.463,1.463,0,0,0-.824-.248h-2.547Z" transform="translate(-1003.97 -30.978)"></path></g><g transform="translate(42.483 0.058)"><path d="M1037.713,38.445v.714h-5.5V30.978h5.392v.715h-4.586v2.95h4v.68h-4v3.123Z" transform="translate(-1032.217 -30.978)"></path></g><g transform="translate(49.189 0.058)"><path d="M1060.1,30.978h.68l3.4,8.181h-.852l-1.022-2.558h-3.74l-1.022,2.558h-.864Zm1.951,4.989-1.616-4.044-1.616,4.044Z" transform="translate(-1056.68 -30.978)"></path></g><g transform="translate(58.441 0.058)"><path d="M1091.24,32.464v6.695h-.806V30.978h.668l5.37,6.821V30.99h.806v8.169h-.749Z" transform="translate(-1090.433 -30.978)"></path></g><g transform="translate(0 13.827)"><path d="M877.238,85.287a4.358,4.358,0,0,1,1.014-2.783,3.628,3.628,0,0,1,1.221-.945,3.735,3.735,0,0,1,1.648-.351,3.385,3.385,0,0,1,1.872.5,3.068,3.068,0,0,1,1.146,1.285l-.633.392a2.422,2.422,0,0,0-.669-.859,2.613,2.613,0,0,0-.858-.455,3.1,3.1,0,0,0-.9-.138,2.781,2.781,0,0,0-1.3.294,2.9,2.9,0,0,0-.95.783,3.483,3.483,0,0,0-.582,1.095,3.955,3.955,0,0,0-.2,1.227,3.715,3.715,0,0,0,.231,1.3,3.529,3.529,0,0,0,.645,1.1,3.173,3.173,0,0,0,.974.761,2.655,2.655,0,0,0,1.216.282,2.975,2.975,0,0,0,.945-.162,2.941,2.941,0,0,0,.9-.5,2.413,2.413,0,0,0,.674-.864l.668.346a2.583,2.583,0,0,1-.783,1.037,3.8,3.8,0,0,1-1.181.646,3.986,3.986,0,0,1-1.273.219,3.313,3.313,0,0,1-1.544-.363,3.958,3.958,0,0,1-1.215-.968,4.454,4.454,0,0,1-.789-1.36A4.408,4.408,0,0,1,877.238,85.287Z" transform="translate(-877.238 -81.208)"></path></g><g transform="translate(9.022 13.884)"><path d="M910.15,89.6V81.418h3.457a2.14,2.14,0,0,1,.968.219,2.5,2.5,0,0,1,.766.593,2.816,2.816,0,0,1,.507.83,2.523,2.523,0,0,1,.179.928,2.756,2.756,0,0,1-.225,1.106,2.424,2.424,0,0,1-.634.876,2.075,2.075,0,0,1-.962.473l2,3.157h-.91l-1.924-3.019h-2.42V89.6Zm.806-3.733h2.673a1.374,1.374,0,0,0,.841-.265,1.753,1.753,0,0,0,.553-.7,2.2,2.2,0,0,0,.2-.916,1.937,1.937,0,0,0-.824-1.6,1.434,1.434,0,0,0-.835-.259h-2.6Z" transform="translate(-910.15 -81.418)"></path></g><g transform="translate(16.581 13.827)"><path d="M941.561,89.5a3.5,3.5,0,0,1-1.567-.345,3.754,3.754,0,0,1-1.21-.939A4.413,4.413,0,0,1,938,86.883a4.342,4.342,0,0,1-.277-1.527,4.3,4.3,0,0,1,1.1-2.886,3.952,3.952,0,0,1,1.227-.922,3.447,3.447,0,0,1,1.521-.34,3.409,3.409,0,0,1,1.567.357,3.792,3.792,0,0,1,1.2.956,4.558,4.558,0,0,1,.778,1.337,4.312,4.312,0,0,1-.011,3.071,4.321,4.321,0,0,1-.807,1.325,3.811,3.811,0,0,1-1.221.916A3.5,3.5,0,0,1,941.561,89.5Zm-3.03-4.148a3.805,3.805,0,0,0,.219,1.285,3.489,3.489,0,0,0,.622,1.095,3.045,3.045,0,0,0,.962.761,2.832,2.832,0,0,0,2.489-.011,3.048,3.048,0,0,0,.956-.784,3.542,3.542,0,0,0,.6-1.1,3.848,3.848,0,0,0,.207-1.245,3.775,3.775,0,0,0-.219-1.279,3.529,3.529,0,0,0-.628-1.094,3.011,3.011,0,0,0-.962-.761,2.846,2.846,0,0,0-2.471.012,2.976,2.976,0,0,0-.956.778,3.629,3.629,0,0,0-.611,1.1A3.749,3.749,0,0,0,938.531,85.356Z" transform="translate(-937.724 -81.208)"></path></g><g transform="translate(25.695 13.827)"><path d="M976.411,82.8a2.1,2.1,0,0,0-.4-.351,2.751,2.751,0,0,0-.519-.271,3.719,3.719,0,0,0-.617-.184,3.36,3.36,0,0,0-.7-.069,2.473,2.473,0,0,0-1.573.409,1.356,1.356,0,0,0-.5,1.11,1.13,1.13,0,0,0,.236.76,1.657,1.657,0,0,0,.743.448q.507.173,1.291.357a9.227,9.227,0,0,1,1.509.437,2.324,2.324,0,0,1,.979.685,1.813,1.813,0,0,1,.346,1.167,2.067,2.067,0,0,1-.219.978,1.952,1.952,0,0,1-.611.69,2.728,2.728,0,0,1-.933.408,5.009,5.009,0,0,1-1.187.132,5.462,5.462,0,0,1-1.216-.132,4.87,4.87,0,0,1-1.1-.392,4.384,4.384,0,0,1-.968-.663l.4-.657a2.986,2.986,0,0,0,.524.432,4.353,4.353,0,0,0,.68.363,4.009,4.009,0,0,0,.807.248,4.55,4.55,0,0,0,.893.087,2.783,2.783,0,0,0,1.526-.357,1.18,1.18,0,0,0,.547-1.058,1.161,1.161,0,0,0-.276-.811,2,2,0,0,0-.83-.5,12.486,12.486,0,0,0-1.36-.38,9.292,9.292,0,0,1-1.441-.437,2.013,2.013,0,0,1-.881-.638,1.73,1.73,0,0,1-.294-1.053,2.147,2.147,0,0,1,.375-1.283,2.319,2.319,0,0,1,1.031-.794,3.937,3.937,0,0,1,1.509-.271,4.415,4.415,0,0,1,1.008.11,3.651,3.651,0,0,1,.864.317,3.577,3.577,0,0,1,.743.518Z" transform="translate(-970.972 -81.208)"></path></g><g transform="translate(33.265 13.827)"><path d="M1004.028,82.8a2.105,2.105,0,0,0-.4-.351,2.751,2.751,0,0,0-.519-.271,3.722,3.722,0,0,0-.617-.184,3.361,3.361,0,0,0-.7-.069,2.472,2.472,0,0,0-1.573.409,1.355,1.355,0,0,0-.5,1.11,1.131,1.131,0,0,0,.236.76,1.658,1.658,0,0,0,.743.448q.507.173,1.291.357a9.232,9.232,0,0,1,1.509.437,2.324,2.324,0,0,1,.979.685,1.813,1.813,0,0,1,.346,1.167,2.063,2.063,0,0,1-.219.978,1.95,1.95,0,0,1-.611.69,2.731,2.731,0,0,1-.933.408,5.008,5.008,0,0,1-1.187.132,5.464,5.464,0,0,1-1.216-.132,4.871,4.871,0,0,1-1.1-.392,4.383,4.383,0,0,1-.968-.663l.4-.657a2.99,2.99,0,0,0,.524.432,4.362,4.362,0,0,0,.68.363,4.012,4.012,0,0,0,.807.248,4.549,4.549,0,0,0,.893.087,2.784,2.784,0,0,0,1.526-.357,1.181,1.181,0,0,0,.547-1.058,1.161,1.161,0,0,0-.277-.811,1.994,1.994,0,0,0-.83-.5,12.491,12.491,0,0,0-1.359-.38,9.288,9.288,0,0,1-1.441-.437,2.011,2.011,0,0,1-.881-.638,1.728,1.728,0,0,1-.294-1.053,2.147,2.147,0,0,1,.374-1.283,2.32,2.32,0,0,1,1.031-.794,3.938,3.938,0,0,1,1.509-.271,4.417,4.417,0,0,1,1.009.11,3.654,3.654,0,0,1,.864.317,3.591,3.591,0,0,1,.743.518Z" transform="translate(-998.589 -81.208)"></path></g><g transform="translate(41.216 18.562)"><path d="M1027.593,99.21v-.726h3.364v.726Z" transform="translate(-1027.593 -98.484)"></path></g><g transform="translate(46.93 13.884)"><path d="M1054.594,87.49a1.953,1.953,0,0,1-.311,1.089,2.159,2.159,0,0,1-.836.749,2.46,2.46,0,0,1-1.147.271h-3.86V81.418h3.94a1.652,1.652,0,0,1,1,.305,2.01,2.01,0,0,1,.645.784,2.318,2.318,0,0,1,.225,1,2.158,2.158,0,0,1-.311,1.129,1.919,1.919,0,0,1-.864.772,2.045,2.045,0,0,1,1.112.772A2.179,2.179,0,0,1,1054.594,87.49Zm-5.347-5.369V85.14h2.812a1.232,1.232,0,0,0,.714-.213,1.584,1.584,0,0,0,.68-1.3,1.639,1.639,0,0,0-.173-.755,1.452,1.452,0,0,0-.472-.547,1.167,1.167,0,0,0-.68-.207Zm4.54,5.231a1.626,1.626,0,0,0-.184-.766,1.565,1.565,0,0,0-.5-.57,1.237,1.237,0,0,0-.72-.219h-3.134v3.1h3.054a1.336,1.336,0,0,0,.749-.219,1.658,1.658,0,0,0,.536-.57A1.494,1.494,0,0,0,1053.787,87.352Z" transform="translate(-1048.441 -81.418)"></path></g><g transform="translate(54.639 13.827)"><path d="M1080.4,89.5a3.5,3.5,0,0,1-1.567-.345,3.757,3.757,0,0,1-1.21-.939,4.414,4.414,0,0,1-.784-1.337,4.343,4.343,0,0,1-.276-1.527,4.3,4.3,0,0,1,1.1-2.886,3.951,3.951,0,0,1,1.227-.922,3.448,3.448,0,0,1,1.521-.34,3.408,3.408,0,0,1,1.567.357,3.791,3.791,0,0,1,1.2.956,4.559,4.559,0,0,1,.778,1.337,4.311,4.311,0,0,1-.011,3.071,4.324,4.324,0,0,1-.806,1.325,3.821,3.821,0,0,1-1.222.916A3.5,3.5,0,0,1,1080.4,89.5Zm-3.03-4.148a3.81,3.81,0,0,0,.219,1.285,3.488,3.488,0,0,0,.622,1.095,3.041,3.041,0,0,0,.962.761,2.831,2.831,0,0,0,2.489-.011,3.046,3.046,0,0,0,.956-.784,3.545,3.545,0,0,0,.6-1.1,3.848,3.848,0,0,0,.207-1.245,3.772,3.772,0,0,0-.219-1.279,3.529,3.529,0,0,0-.628-1.094,3.011,3.011,0,0,0-.962-.761,2.846,2.846,0,0,0-2.471.012,2.979,2.979,0,0,0-.956.778,3.632,3.632,0,0,0-.611,1.1A3.751,3.751,0,0,0,1077.368,85.356Z" transform="translate(-1076.561 -81.208)"></path></g><g transform="translate(64.41 13.884)"><path d="M1112.206,89.6V81.418h3.456a2.141,2.141,0,0,1,.968.219,2.5,2.5,0,0,1,.766.593,2.819,2.819,0,0,1,.507.83,2.523,2.523,0,0,1,.179.928,2.754,2.754,0,0,1-.225,1.106,2.426,2.426,0,0,1-.634.876,2.074,2.074,0,0,1-.962.473l2,3.157h-.91l-1.924-3.019h-2.42V89.6Zm.806-3.733h2.673a1.372,1.372,0,0,0,.841-.265,1.75,1.75,0,0,0,.553-.7,2.194,2.194,0,0,0,.2-.916,1.937,1.937,0,0,0-.824-1.6,1.434,1.434,0,0,0-.836-.259h-2.6Z" transform="translate(-1112.206 -81.418)"></path></g><g transform="translate(72.51 13.884)"><path d="M1141.756,89.6V81.418h2.777a4.008,4.008,0,0,1,2.172.547,3.451,3.451,0,0,1,1.308,1.475,4.762,4.762,0,0,1,.438,2.057,4.648,4.648,0,0,1-.478,2.166,3.44,3.44,0,0,1-1.36,1.429,4.1,4.1,0,0,1-2.08.507Zm5.888-4.1a3.992,3.992,0,0,0-.363-1.74,2.792,2.792,0,0,0-1.054-1.192,3.134,3.134,0,0,0-1.694-.432h-1.97v6.752h1.97a3.068,3.068,0,0,0,1.705-.45,2.862,2.862,0,0,0,1.048-1.216A4.032,4.032,0,0,0,1147.644,85.5Z" transform="translate(-1141.756 -81.418)"></path></g><g transform="translate(81.324 13.884)"><path d="M1179.407,88.885V89.6h-5.5V81.418h5.392v.715h-4.586v2.95h4v.68h-4v3.123Z" transform="translate(-1173.911 -81.418)"></path></g><g transform="translate(88.918 13.884)"><path d="M1201.611,89.6V81.418h3.457a2.139,2.139,0,0,1,.968.219,2.5,2.5,0,0,1,.766.593,2.814,2.814,0,0,1,.507.83,2.526,2.526,0,0,1,.179.928,2.758,2.758,0,0,1-.225,1.106,2.429,2.429,0,0,1-.634.876,2.075,2.075,0,0,1-.962.473l2,3.157h-.91l-1.924-3.019h-2.42V89.6Zm.807-3.733h2.673a1.372,1.372,0,0,0,.841-.265,1.75,1.75,0,0,0,.553-.7,2.194,2.194,0,0,0,.2-.916,1.936,1.936,0,0,0-.824-1.6,1.432,1.432,0,0,0-.835-.259h-2.6Z" transform="translate(-1201.611 -81.418)"></path></g><g transform="translate(0.427 27.711)"><path d="M882.239,140.1a3.528,3.528,0,0,1-1.636-.346,2.8,2.8,0,0,1-1.06-.927,4.032,4.032,0,0,1-.57-1.32,6.424,6.424,0,0,1-.178-1.521v-4.125h.795v4.125a5.854,5.854,0,0,0,.133,1.245,3.446,3.446,0,0,0,.432,1.095,2.174,2.174,0,0,0,.806.766,2.994,2.994,0,0,0,2.564-.012,2.206,2.206,0,0,0,.806-.778,3.441,3.441,0,0,0,.421-1.089,5.977,5.977,0,0,0,.127-1.227v-4.125h.806v4.125a6.538,6.538,0,0,1-.184,1.567,3.735,3.735,0,0,1-.594,1.313,2.932,2.932,0,0,1-1.066.9A3.5,3.5,0,0,1,882.239,140.1Z" transform="translate(-878.794 -131.859)"></path></g><g transform="translate(9.817 27.711)"><path d="M913.857,133.345v6.695h-.806v-8.181h.668l5.37,6.821v-6.81h.807v8.169h-.749Z" transform="translate(-913.051 -131.859)"></path></g><g transform="translate(19.289 27.711)"><path d="M947.6,140.04v-8.181h.806v8.181Z" transform="translate(-947.603 -131.859)"></path></g><g transform="translate(21.846 27.711)"><path d="M957.774,131.859l2.927,7.178,2.915-7.178h.841l-3.387,8.181h-.738l-3.4-8.181Z" transform="translate(-956.933 -131.859)"></path></g><g transform="translate(31.122 27.711)"><path d="M996.266,139.326v.714h-5.5v-8.181h5.392v.714h-4.586v2.95h4v.68h-4v3.123Z" transform="translate(-990.77 -131.859)"></path></g><g transform="translate(38.715 27.711)"><path d="M1018.47,140.04v-8.181h3.457a2.139,2.139,0,0,1,.968.219,2.5,2.5,0,0,1,.766.593,2.8,2.8,0,0,1,.507.83,2.524,2.524,0,0,1,.179.928,2.749,2.749,0,0,1-.225,1.106,2.423,2.423,0,0,1-.633.876,2.075,2.075,0,0,1-.962.473l2,3.157h-.91l-1.924-3.019h-2.42v3.019Zm.806-3.733h2.673a1.372,1.372,0,0,0,.841-.265,1.75,1.75,0,0,0,.553-.7,2.195,2.195,0,0,0,.2-.916,1.936,1.936,0,0,0-.824-1.6,1.433,1.433,0,0,0-.835-.259h-2.6Z" transform="translate(-1018.47 -131.859)"></path></g><g transform="translate(46.158 27.654)"><path d="M1051.062,133.239a2.1,2.1,0,0,0-.4-.351,2.751,2.751,0,0,0-.519-.271,3.742,3.742,0,0,0-.617-.184,3.379,3.379,0,0,0-.7-.069,2.472,2.472,0,0,0-1.573.409,1.356,1.356,0,0,0-.5,1.11,1.133,1.133,0,0,0,.236.76,1.664,1.664,0,0,0,.744.448q.507.173,1.29.357a9.222,9.222,0,0,1,1.51.437,2.323,2.323,0,0,1,.979.685,1.812,1.812,0,0,1,.346,1.167,2.065,2.065,0,0,1-.219.978,1.951,1.951,0,0,1-.61.69,2.724,2.724,0,0,1-.933.408,4.994,4.994,0,0,1-1.187.132,5.447,5.447,0,0,1-1.216-.133,4.857,4.857,0,0,1-1.1-.391,4.38,4.38,0,0,1-.968-.663l.4-.657a2.99,2.99,0,0,0,.524.432,4.371,4.371,0,0,0,.68.363,4.007,4.007,0,0,0,.807.248,4.544,4.544,0,0,0,.893.087,2.784,2.784,0,0,0,1.527-.357,1.181,1.181,0,0,0,.547-1.058,1.16,1.16,0,0,0-.277-.811,1.994,1.994,0,0,0-.83-.5,12.459,12.459,0,0,0-1.36-.38,9.286,9.286,0,0,1-1.44-.437,2.012,2.012,0,0,1-.881-.638,1.728,1.728,0,0,1-.294-1.053,2.147,2.147,0,0,1,.375-1.283,2.318,2.318,0,0,1,1.031-.794,3.936,3.936,0,0,1,1.509-.271,4.431,4.431,0,0,1,1.009.109,3.662,3.662,0,0,1,.864.317,3.584,3.584,0,0,1,.743.518Z" transform="translate(-1045.623 -131.649)"></path></g><g transform="translate(54.385 27.711)"><path d="M1075.636,140.04v-8.181h.807v8.181Z" transform="translate(-1075.636 -131.859)"></path></g><g transform="translate(56.989 27.711)"><path d="M1091.771,132.573h-2.915v7.467h-.806v-7.467h-2.915v-.714h6.637Z" transform="translate(-1085.134 -131.859)"></path></g><g transform="translate(64.582 27.711)"><path d="M1113.721,131.859l2.673,4.4,2.7-4.4h.876L1116.8,137v3.042h-.807v-3.065l-3.157-5.116Z" transform="translate(-1112.834 -131.859)"></path></g></g></svg>