<svg xmlns="http://www.w3.org/2000/svg" xmlns:xlink="http://www.w3.org/1999/xlink" width="972.271" height="466.023" viewBox="0 0 972.271 466.023"><defs><clipPath id="a"><rect width="653.271" height="466.023" fill="none"></rect></clipPath></defs><g transform="translate(0 -1445.91)"><rect width="187" height="92" transform="translate(598.289 1727.893)" fill="#ffa1db"></rect><rect width="186.999" height="92" transform="translate(598.289 1819.893)" fill="#fff"></rect><g transform="translate(319 1445.91)" clip-path="url(#a)"><path d="M92.289,186.993h-92q0,10.48.761,20.831A279.036,279.036,0,0,0,279.289,465.993v-92c-103.112,0-187-83.888-187-187" fill="#ffa0dc"></path><path d="M.289.007v92.03c1.007,0-1-.031,0,0a95,95,0,0,1,91.983,94.946h92.007C184.279,84.876,102.019,1.621.289.007c-1-.016,1.005,0,0,0" fill="#ffd200"></path><path d="M466.289,281.983V373.99a94.877,94.877,0,0,1,94.947,91.994h92.035c-1.537-101.8-84.826-184-186.982-184" fill="#ffd200"></path><path d="M279.289,373.983V281.976A94.993,94.993,0,0,1,184.3,186.983H92.289c0,103.112,83.888,187,187,187" fill="#ff463c"></path></g><rect width="321" height="92" transform="translate(0 1445.91)" fill="#fff"></rect></g></svg>