<svg xmlns="http://www.w3.org/2000/svg" width="39.103" height="42.867" viewBox="0 0 39.103 42.867"><path d="M168.83,36.7c0-7.444,4.173-11.535,9.9-13.58a44.582,44.582,0,0,0-1.718,13.58c0,6.053.654,10.635,1.881,13.907C173,48.567,168.83,44.312,168.83,36.7Zm20.125-15.053a31.882,31.882,0,0,0-10.226,1.473c2.046-5.809,5.644-7.772,10.062-7.772,4.09,0,7.526,2.046,9.408,7.853A27.766,27.766,0,0,0,188.955,21.652ZM178.892,50.612a30.536,30.536,0,0,0,10.062,1.554,32.573,32.573,0,0,0,9.408-1.145c-1.881,5.4-5.481,7.2-9.49,7.2C184.21,58.22,180.774,56.011,178.892,50.612ZM198.2,23.206c4.663,1.637,8.59,4.582,9.571,9h-8.017A35.127,35.127,0,0,0,198.2,23.206Zm1.554,19.307h8.18c-1.391,4.336-4.663,7.117-9.571,8.508A26.322,26.322,0,0,0,199.753,42.514Z" transform="translate(-168.83 -15.353)"></path></svg>